<svg width="157" height="40" viewBox="0 0 157 40" fill="none" xmlns="http://www.w3.org/2000/svg">
<path fill-rule="evenodd" clip-rule="evenodd" d="M76.7861 0.0281509C73.1446 -0.256179 70.9572 1.6164 70.9549 5.50684C70.9515 8.90377 71.2066 27.0145 70.7249 28.842C68.8962 35.7711 59.1513 34.5298 59.2731 26.8228C59.3255 23.5249 61.6359 20.9659 64.3448 20.6327C66.2806 20.3935 67.302 20.1755 67.8554 18.4858C69.2993 14.0731 63.4328 12.2556 58.3815 16.4467C53.4169 20.5638 51.883 27.5568 54.8379 33.2021C59.1957 41.5291 70.167 42.575 75.2261 33.5366C76.8898 30.563 76.8203 27.4028 76.8203 23.4773C76.8203 15.9469 77.1574 7.43828 76.7861 0.0281509ZM124.35 39.8632L130.18 39.8657L130.204 14.0919L124.37 14.1132L124.35 39.8632ZM156.833 20.5475L156.904 14.0919C152.119 14.2096 144.302 13.3128 140.413 15.2142C137.068 16.8475 133.354 21.125 133.48 26.8404C133.55 30.0093 136.629 31.2494 138.453 29.348C139.873 27.8687 138.818 24.9866 140.95 22.5153C142.63 20.5688 144.774 20.55 147.919 20.5538C150.889 20.5563 153.863 20.5651 156.833 20.5475ZM133.485 39.8582C138.021 39.9196 146.391 40.502 150.054 38.7534C153.367 37.1715 157.076 32.5182 156.896 27.0571C156.794 23.9119 153.493 22.6581 151.778 24.8501C150.377 26.64 151.737 28.8169 149.234 31.6289C147.554 33.5165 145.274 33.4376 142.26 33.4364C139.351 33.4364 136.374 33.3687 133.476 33.4526L133.485 39.8582ZM106.785 14.1019C106.751 19.0833 106.188 28.5764 107.805 32.4005C109.292 35.9177 113.4 40.1864 118.545 39.862C121.458 39.6778 122.315 35.9966 120.504 34.2392C119.005 32.7838 116.628 34.1278 114.296 31.4949C112.346 29.2929 112.646 27.2875 112.647 23.7165C112.647 20.5175 112.663 17.3147 112.643 14.1081L106.785 14.1019ZM80.1601 39.8269L85.7966 39.8845C86.5219 37.2855 85.5142 29.1939 86.0482 25.792C86.6073 22.2397 90.3502 19.2148 94.1489 21.0899C98.978 23.4735 96.3932 28.1518 99.2411 29.8553C101.014 30.9175 103.016 29.5622 103.408 27.9101C105.097 20.7717 95.1099 8.8662 85.1225 16.4116C82.8542 18.1238 80.5791 21.2615 80.1589 25.5214C79.9528 27.6044 79.8754 37.9919 80.1601 39.8269ZM43.9703 25.202C41.3433 25.197 37.3443 24.3966 37.35 27.7848C37.3557 31.1129 41.6872 30.2611 44.0899 30.2611C46.9252 30.2624 49.9735 30.6319 50.1283 27.0496C50.2502 24.21 49.2174 21.5183 48.1265 19.7509C42.2941 10.2979 29.1229 13.413 26.9913 24.0647C24.9918 34.0576 33.2871 40.7037 38.8656 39.8206C41.6963 39.3735 42.0573 35.3941 40.1762 34.0138C39.2322 33.3211 37.6107 33.5115 36.4641 33.0643C35.4222 32.6573 34.4144 31.8393 33.894 31.1016C30.6032 26.4283 33.8508 19.8724 39.2869 20.6264C41.521 20.9371 43.4909 22.9412 43.9703 25.202ZM10.0613 14.2384C2.22826 15.526 -1.70135 24.1023 0.701281 31.4561C1.54733 34.0463 2.98321 35.6396 4.37355 36.9924C8.14716 40.6611 13.4284 39.8695 19.2756 39.8695C21.841 39.8695 25.3675 40.5484 26.1999 37.7752C26.7089 36.0805 26.0644 34.9106 25.2457 34.1466C24.1993 33.1708 22.9216 33.4313 21.4516 33.4364C18.5491 33.4464 15.6443 33.4364 12.7406 33.4389C5.18885 33.4451 4.94062 26.0951 7.10868 23.0138C8.57759 20.9271 10.6637 20.545 13.6163 20.5526C16.5188 20.5601 19.4259 20.5325 22.3284 20.5576C24.0011 20.5713 24.7663 20.5576 25.6203 19.4378C26.332 18.5059 26.6121 16.9715 25.9528 15.6525C24.8642 13.4794 21.4413 14.1044 18.622 14.1044C16.1635 14.1044 12.3068 13.8689 10.0613 14.2384Z" fill="#42505C"/>
</svg>
