<svg width="24" height="24" viewBox="0 0 24 24" fill="none" xmlns="http://www.w3.org/2000/svg">
<path d="M12.1359 2.24999C6.65243 2.17593 2.17587 6.65249 2.24993 12.1359C2.32305 17.3948 6.60509 21.6769 11.864 21.75C17.3484 21.825 21.824 17.3484 21.749 11.865C21.6768 6.60515 17.3948 2.32312 12.1359 2.24999ZM11.3488 11.272L13.7652 8.5064C13.8962 8.35659 14.0812 8.26492 14.2797 8.25156C14.4782 8.2382 14.6739 8.30424 14.8237 8.43515C14.9735 8.56606 15.0652 8.75111 15.0785 8.94961C15.0919 9.14811 15.0258 9.34378 14.8949 9.49358L12.4785 12.2592C12.4137 12.3334 12.3349 12.3941 12.2466 12.4378C12.1584 12.4815 12.0623 12.5074 11.9641 12.514C11.8658 12.5207 11.7671 12.5079 11.6738 12.4764C11.5805 12.4449 11.4943 12.3953 11.4201 12.3305C11.3459 12.2656 11.2852 12.1868 11.2415 12.0986C11.1978 12.0103 11.1719 11.9143 11.1653 11.816C11.1586 11.7177 11.1714 11.6191 11.2029 11.5258C11.2344 11.4324 11.284 11.3462 11.3488 11.272ZM9.52727 15.5306C9.38664 15.6712 9.19594 15.7501 8.99712 15.7501C8.79829 15.7501 8.6076 15.6712 8.46696 15.5306L6.2193 13.2806C6.14968 13.2109 6.09447 13.1282 6.05681 13.0372C6.01916 12.9462 5.9998 12.8486 5.99984 12.7501C5.99989 12.6516 6.01933 12.5541 6.05707 12.4631C6.0948 12.3721 6.15009 12.2895 6.21977 12.2198C6.28946 12.1502 6.37217 12.095 6.46319 12.0573C6.55421 12.0197 6.65176 12.0003 6.75026 12.0004C6.84876 12.0004 6.94629 12.0199 7.03728 12.0576C7.12827 12.0953 7.21093 12.1506 7.28055 12.2203L9.53055 14.4703C9.67067 14.6114 9.74903 14.8023 9.74841 15.0011C9.7478 15.2 9.66826 15.3904 9.52727 15.5306ZM17.8148 9.49358L12.5704 15.4936C12.5028 15.571 12.4201 15.6337 12.3273 15.6778C12.2345 15.7219 12.1336 15.7465 12.0309 15.75H12.0056C11.907 15.75 11.8094 15.7306 11.7184 15.6929C11.6273 15.6552 11.5446 15.5999 11.4749 15.5301L9.22774 13.2801C9.08714 13.1394 9.00819 12.9486 9.00828 12.7497C9.00837 12.5507 9.08748 12.36 9.22821 12.2194C9.36894 12.0788 9.55976 11.9998 9.7587 11.9999C9.95763 12 10.1484 12.0791 10.289 12.2198L11.6859 13.6181C11.7222 13.6544 11.7656 13.6829 11.8133 13.7018C11.8611 13.7206 11.9123 13.7295 11.9636 13.7278C12.0149 13.7261 12.0654 13.7138 12.1118 13.6918C12.1582 13.6698 12.1996 13.6385 12.2334 13.5998L16.6865 8.5064C16.8174 8.35659 17.0025 8.26492 17.201 8.25156C17.3994 8.2382 17.5951 8.30424 17.7449 8.43515C17.8947 8.56606 17.9864 8.75111 17.9998 8.94961C18.0131 9.14811 17.9471 9.34378 17.8162 9.49358H17.8148Z" fill="#828282"/>
</svg>
