<svg width="24" height="24" viewBox="0 0 24 24" fill="none" xmlns="http://www.w3.org/2000/svg">
<path d="M18.4286 15.8571C17.9745 15.8594 17.5298 15.9861 17.1429 16.2236L15.1564 14.2307C15.6186 13.5787 15.8669 12.7992 15.8669 12C15.8669 11.2008 15.6186 10.4213 15.1564 9.76929L17.1429 7.77643C17.5298 8.0139 17.9745 8.14064 18.4286 8.14286C18.9372 8.14286 19.4343 7.99205 19.8572 7.70949C20.28 7.42694 20.6096 7.02534 20.8043 6.55547C20.9989 6.08561 21.0498 5.56858 20.9506 5.06977C20.8514 4.57096 20.6065 4.11278 20.2468 3.75315C19.8872 3.39353 19.429 3.14863 18.9302 3.04941C18.4314 2.95019 17.9144 3.00111 17.4445 3.19574C16.9747 3.39036 16.5731 3.71995 16.2905 4.14282C16.008 4.56569 15.8571 5.06285 15.8571 5.57143C15.8594 6.02545 15.9861 6.47017 16.2236 6.85714L14.2307 8.84357C13.5787 8.38136 12.7992 8.13309 12 8.13309C11.2008 8.13309 10.4213 8.38136 9.76929 8.84357L7.77643 6.85714C8.0139 6.47017 8.14064 6.02545 8.14286 5.57143C8.14286 5.06285 7.99205 4.56569 7.70949 4.14282C7.42694 3.71995 7.02534 3.39036 6.55547 3.19574C6.08561 3.00111 5.56858 2.95019 5.06977 3.04941C4.57096 3.14863 4.11278 3.39353 3.75315 3.75315C3.39353 4.11278 3.14863 4.57096 3.04941 5.06977C2.95019 5.56858 3.00111 6.08561 3.19574 6.55547C3.39036 7.02534 3.71995 7.42694 4.14282 7.70949C4.56569 7.99205 5.06285 8.14286 5.57143 8.14286C6.02545 8.14064 6.47017 8.0139 6.85714 7.77643L8.84357 9.76929C8.38136 10.4213 8.13309 11.2008 8.13309 12C8.13309 12.7992 8.38136 13.5787 8.84357 14.2307L6.85714 16.2236C6.47017 15.9861 6.02545 15.8594 5.57143 15.8571C5.06285 15.8571 4.56569 16.008 4.14282 16.2905C3.71995 16.5731 3.39036 16.9747 3.19574 17.4445C3.00111 17.9144 2.95019 18.4314 3.04941 18.9302C3.14863 19.429 3.39353 19.8872 3.75315 20.2468C4.11278 20.6065 4.57096 20.8514 5.06977 20.9506C5.56858 21.0498 6.08561 20.9989 6.55547 20.8043C7.02534 20.6096 7.42694 20.28 7.70949 19.8572C7.99205 19.4343 8.14286 18.9372 8.14286 18.4286C8.14064 17.9745 8.0139 17.5298 7.77643 17.1429L9.76929 15.1564C10.4213 15.6186 11.2008 15.8669 12 15.8669C12.7992 15.8669 13.5787 15.6186 14.2307 15.1564L16.2236 17.1429C15.9861 17.5298 15.8594 17.9745 15.8571 18.4286C15.8571 18.9372 16.008 19.4343 16.2905 19.8572C16.5731 20.28 16.9747 20.6096 17.4445 20.8043C17.9144 20.9989 18.4314 21.0498 18.9302 20.9506C19.429 20.8514 19.8872 20.6065 20.2468 20.2468C20.6065 19.8872 20.8514 19.429 20.9506 18.9302C21.0498 18.4314 20.9989 17.9144 20.8043 17.4445C20.6096 16.9747 20.28 16.5731 19.8572 16.2905C19.4343 16.008 18.9372 15.8571 18.4286 15.8571ZM12 14.5714C11.4914 14.5714 10.9943 14.4206 10.5714 14.1381C10.1485 13.8555 9.81894 13.4539 9.62431 12.984C9.42968 12.5142 9.37876 11.9971 9.47798 11.4983C9.5772 10.9995 9.8221 10.5413 10.1817 10.1817C10.5413 9.8221 10.9995 9.5772 11.4983 9.47798C11.9971 9.37876 12.5142 9.42968 12.984 9.62431C13.4539 9.81894 13.8555 10.1485 14.1381 10.5714C14.4206 10.9943 14.5714 11.4914 14.5714 12C14.5714 12.682 14.3005 13.336 13.8183 13.8183C13.336 14.3005 12.682 14.5714 12 14.5714Z" fill="#828282"/>
</svg>
